<svg xmlns="http://www.w3.org/2000/svg" xmlns:android="http://schemas.android.com/apk/res/android" height="24" tint="#FF9800" viewportHeight="24" viewportWidth="24" width="24">
	<path fill="@color/white" d="M6,20L6,20c1.1,0 2,-0.9 2,-2v-7c0,-1.1 -0.9,-2 -2,-2h0c-1.1,0 -2,0.9 -2,2v7C4,19.1 4.9,20 6,20z"/>
	<path fill="@color/white" d="M16,15v3c0,1.1 0.9,2 2,2h0c1.1,0 2,-0.9 2,-2v-3c0,-1.1 -0.9,-2 -2,-2h0C16.9,13 16,13.9 16,15z"/>
	<path fill="@color/white" d="M12,20L12,20c1.1,0 2,-0.9 2,-2V6c0,-1.1 -0.9,-2 -2,-2h0c-1.1,0 -2,0.9 -2,2v12C10,19.1 10.9,20 12,20z"/>
</svg>
