<svg xmlns="http://www.w3.org/2000/svg" width="960" height="960" viewportWidth="960" viewportHeight="960">
	<path fill="@color/black" d="M240,760L370,760L370,220L240,400"/>
	<path fill="@color/black" d="M740,760L590,760L590,220L760,400"/>
	<path fill="@color/black" d="M360,600L600,600L600,220L360,220"/>
	<path fill="#000000" stroke-width="0" d="M240,760L360,760L360,560Q360,543 371.5,531.5Q383,520 400,520L560,520Q577,520 588.5,531.5Q600,543 600,560L600,760L720,760L720,400Q720,400 720,400Q720,400 720,400L480,220Q480,220 480,220Q480,220 480,220L240,400Q240,400 240,400Q240,400 240,400L240,760ZM160,760L160,400Q160,381 168.5,364Q177,347 192,336L432,156Q453,140 480,140Q507,140 528,156L768,336Q783,347 791.5,364Q800,381 800,400L800,760Q800,793 776.5,816.5Q753,840 720,840L600,840Q583,840 571.5,828.5Q560,817 560,800L560,600Q560,600 560,600Q560,600 560,600L400,600Q400,600 400,600Q400,600 400,600L400,800Q400,817 388.5,828.5Q377,840 360,840L240,840Q207,840 183.5,816.5Q160,793 160,760Z"/>
</svg>
